PathFileType	3	(X/Y/Z)	F:\ViconData\AntennenMessung\Messung1\Session1\ID08.trc
DataRate	CameraRate	NumFrames	NumMarkers	Units	OrigDataRate	OrigDataStartFrame	OrigNumFrames
120.0	120.0	5	70	mm	120.0	311	1240	
Frame#	Time	Ashort			Along			Atop			A4			Bshort			Blong			Btop			B4			Cshort			Clong			Ctop			C4			Dshort			Dlong			Dtop			D4			Eshort			Elong			Etop			E4			Fshort			Flong			Ftop			F4			Gshort			Glong			Gtop			G4			Hshort			Hlong			Htop			H4			I1			I2			I3			I4			I5			WandAshort			WandAlong			WandAtop			WandA4			WandA15			WandBshort			WandB4			WandB5			WandBtop			WandBlong			WandCshort			WandClong			WandCtop			WandC4			WandC5			Acenter			Aantenna			Bcenter			Bantenna			Ccenter			Cantenna			Dcenter			Dantenna			Ecenter			Eantenna			Fcenter			Fantenna			Gcenter			Gantenna			Hcenter			Hantenna			Icenter			Iantenna			
		X1	Y1	Z1	X2	Y2	Z2	X3	Y3	Z3	X4	Y4	Z4	X5	Y5	Z5	X6	Y6	Z6	X7	Y7	Z7	X8	Y8	Z8	X9	Y9	Z9	X10	Y10	Z10	X11	Y11	Z11	X12	Y12	Z12	X13	Y13	Z13	X14	Y14	Z14	X15	Y15	Z15	X16	Y16	Z16	X17	Y17	Z17	X18	Y18	Z18	X19	Y19	Z19	X20	Y20	Z20	X21	Y21	Z21	X22	Y22	Z22	X23	Y23	Z23	X24	Y24	Z24	X25	Y25	Z25	X26	Y26	Z26	X27	Y27	Z27	X28	Y28	Z28	X29	Y29	Z29	X30	Y30	Z30	X31	Y31	Z31	X32	Y32	Z32	X33	Y33	Z33	X34	Y34	Z34	X35	Y35	Z35	X36	Y36	Z36	X37	Y37	Z37	X38	Y38	Z38	X39	Y39	Z39	X40	Y40	Z40	X41	Y41	Z41	X42	Y42	Z42	X43	Y43	Z43	X44	Y44	Z44	X45	Y45	Z45	X46	Y46	Z46	X47	Y47	Z47	X48	Y48	Z48	X49	Y49	Z49	X50	Y50	Z50	X51	Y51	Z51	X52	Y52	Z52	X53	Y53	Z53	X54	Y54	Z54	X55	Y55	Z55	X56	Y56	Z56	X57	Y57	Z57	X58	Y58	Z58	X59	Y59	Z59	X60	Y60	Z60	X61	Y61	Z61	X62	Y62	Z62	X63	Y63	Z63	X64	Y64	Z64	X65	Y65	Z65	X66	Y66	Z66	X67	Y67	Z67	X68	Y68	Z68	X69	Y69	Z69	X70	Y70	Z70	
311	2.5833333	-1038.1921	214.52074	-1644.1017	-1109.3318	203.87216	-1599.4064	-1064.0487	172.78076	-1625.4022	-1054.1216	262.14154	-1634.9347	-1352.7471	235.15663	1004.0067	-1281.3484	227.31429	1052.4795	-1322.7909	193.9689	1020.9426	-1284.3947	287.89307	1052.7678	814.03778	187.7878	1209.5905	892.34155	178.52126	1179.1381	844.54797	145.4857	1198.3037	861.23773	292.63623	1168.5494	1115.9415	209.92552	-1401.7512	1056.3939	193.97559	-1460.0398	1095.2982	162.38214	-1423.8625	1069.8739	238.89853	-1425.8701	-1204.6975	1686.1177	-1562.9374	-1129.1366	1688.2605	-1605.9639	-1173.0687	1724.3269	-1581.969	-1133.5366	1581.084	-1603.5486	-1239.5508	1699.0336	1119.3981	-1308.4271	1699.5753	1070.3596	-1270.4326	1736.2612	1096.875	-1245.5551	1592.7159	1110.6721	988.92004	1664.2576	1162.2816	957.39557	1700.488	1183.7937	922.15179	1662.2616	1214.9044	939.87396	1659.4043	1159.8622	999.32684	1668.4425	-1579.3047	1059.0795	1670.2124	-1518.6166	1025.1531	1708.0361	-1551.0869	1059.4343	1672.2075	-1585.4631	392.99786	1170.2169	-32.887993	395.60745	1172.3693	-116.8735	396.34518	1208.4249	-69.423965	427.05032	1169.4427	-69.13942	346.55881	1174.627	-71.009613																																														-1069.1367	209.88876	-1624.6599	-1074.4338	248.51962	-1623.8872	-1321.5326	231.72806	1025.1982	-1320.2419	270.46146	1029.5638	848.2843	183.73503	1196.2719	852.07062	222.49615	1194.213	1088.8358	202.66521	-1428.2837	1082.6943	240.94873	-1432.4852	-1171.8312	1687.0497	-1581.6522	-1170.5371	1648.0725	-1581.321	-1270.8787	1699.2799	1097.0933	-1271.3494	1660.2834	1097.3232	952.89514	1705.6603	1186.8646	972.83734	1733.8115	1168.6761	1026.7119	1669.2535	-1551.4907	1028.2782	1630.2871	-1551.8965	394.16483	1171.1794	-70.446175	391.88654	1132.2606	-71.514297
312	2.5916667	-1038.2039	214.57027	-1644.1189	-1109.3412	203.9402	-1599.4359	-1063.7021	172.95305	-1625.7416	-1054.1169	262.13452	-1634.9236	-1352.787	235.09026	1003.9898	-1281.3756	227.29604	1052.4211	-1322.797	193.99208	1020.9262	-1284.4733	287.76712	1052.8816	814.00641	187.72389	1209.5106	892.2605	178.44353	1179.1553	844.5625	145.41357	1198.3374	861.22083	292.54837	1168.7028	1115.9362	209.91141	-1401.7554	1056.4032	193.98732	-1460.0685	1095.2258	162.29893	-1423.8307	1069.8593	238.79625	-1425.8068	-1204.6875	1686.1163	-1562.9382	-1129.1394	1688.2515	-1605.9517	-1173.0757	1724.328	-1581.9502	-1133.5065	1581.0353	-1603.4902	-1239.5485	1699.0308	1119.3947	-1309.3754	1698.915	1071.9746	-1270.4532	1736.292	1096.8834	-1245.5691	1592.7313	1110.6742	988.97351	1664.299	1162.2745	957.40393	1700.5223	1183.7775	922.01361	1662.337	1214.9348	939.87115	1659.3481	1159.9097	999.30731	1668.4398	-1579.3047	1059.0769	1670.207	-1518.6097	1025.1516	1708.0402	-1551.0872	1059.431	1672.2032	-1585.4658	393.01971	1170.2246	-32.892826	395.60693	1172.3776	-116.8636	396.33127	1208.4407	-69.405777	427.02853	1169.4249	-69.123459	346.5719	1174.6354	-71.002525																																														-1068.7361	210.0078	-1624.9408	-1073.985	248.64395	-1624.1057	-1321.5601	231.68196	1025.168	-1320.2888	270.41672	1029.5273	848.27576	183.65977	1196.2172	852.03876	222.41829	1194.0685	1088.8217	202.65874	-1428.3141	1082.7463	240.94711	-1432.5674	-1171.8439	1687.0446	-1581.6376	-1170.5563	1648.0671	-1581.311	-1271.1189	1698.9783	1097.9548	-1271.8143	1660.0006	1099.0741	952.80103	1705.8036	1186.9126	972.75079	1733.9692	1168.7546	1026.7026	1669.2498	-1551.4851	1028.2609	1630.283	-1551.885	394.17615	1171.1869	-70.427338	391.92462	1132.2666	-71.494591
313	2.6	-1038.1854	214.53021	-1644.1051	-1109.3655	203.91013	-1599.4105	-1063.6918	172.98222	-1625.7395	-1054.1152	262.1142	-1634.9208	-1352.6957	235.22121	1003.9393	-1281.329	227.33141	1052.4075	-1322.8363	193.93803	1020.9232	-1284.3159	287.90207	1052.76	814.13531	187.73985	1209.4333	892.76111	179.18396	1178.6062	844.59515	145.48117	1198.3022	861.18634	292.69382	1168.7827	1115.9435	209.94473	-1401.7485	1056.3688	194.06215	-1460.1473	1095.2151	162.29008	-1423.8514	1069.8431	238.85904	-1425.8665	-1204.6797	1686.1182	-1562.9341	-1129.144	1688.2318	-1605.9148	-1173.0702	1724.3438	-1581.959	-1133.5436	1581.0804	-1603.5411	-1239.5707	1699.0642	1119.4097	-1309.3795	1698.8801	1071.958	-1270.4347	1736.265	1096.8876	-1245.5916	1592.7281	1110.6663	988.98224	1664.308	1162.2726	957.38806	1700.481	1183.799	922.14636	1662.2117	1214.9386	939.86627	1659.4165	1159.8949	999.32379	1668.4427	-1579.2982	1058.9437	1670.0148	-1518.6302	1025.1583	1708.0389	-1551.0782	1059.4423	1672.1578	-1585.3407	393.10327	1170.1378	-32.968166	395.60217	1172.3768	-116.86959	396.34021	1208.4241	-69.41024	427.05048	1169.4508	-69.131966	346.5683	1174.6394	-71.023315																																														-1068.7086	209.9761	-1624.9391	-1073.9486	248.61346	-1624.1033	-1321.5052	231.77299	1025.1221	-1320.1422	270.51132	1029.4214	847.95795	184.05933	1196.1722	851.33966	222.85335	1194.0303	1088.8273	202.71558	-1428.3295	1082.7764	241.00908	-1432.5712	-1171.8351	1687.0371	-1581.6229	-1170.5448	1648.0601	-1581.272	-1271.0847	1698.9811	1097.9885	-1271.764	1660.0039	1099.1393	952.83209	1705.6969	1186.903	972.7265	1733.8898	1168.7267	1026.6274	1669.1625	-1551.5146	1028.1001	1630.1929	-1551.9521	394.22015	1171.1385	-70.468445	392.00705	1132.217	-71.57309
314	2.6083333	-1038.1858	214.45998	-1644.0719	-1109.3453	203.95534	-1599.45	-1064.1714	173.03609	-1625.3923	-1054.1257	262.14722	-1634.8483	-1352.6945	235.2103	1003.8736	-1281.3075	227.30597	1052.3379	-1322.8243	193.9563	1020.9004	-1284.3873	287.84396	1052.7324	814.15143	187.69823	1209.4703	892.44714	178.62862	1179.0571	844.58386	145.42154	1198.3235	861.28094	292.6369	1168.4564	1115.9243	209.90814	-1401.7527	1056.3793	193.99728	-1460.0472	1095.2802	162.35519	-1423.88	1069.8296	238.80838	-1425.8304	-1204.6796	1686.1163	-1562.9467	-1129.1406	1688.2399	-1605.9382	-1173.0713	1724.3274	-1581.967	-1133.9932	1581.0807	-1603.7623	-1239.543	1699.0148	1119.3929	-1309.3638	1698.85	1071.9556	-1270.439	1736.2893	1096.8944	-1245.5625	1592.6851	1110.6666	988.91687	1664.2605	1162.2599	957.42816	1700.4767	1183.809	922.22345	1662.2645	1214.9298	939.84448	1659.4023	1159.8853	999.31665	1668.4662	-1579.3101	1059.0936	1670.2057	-1518.5946	1025.1602	1708.047	-1551.077	1059.4513	1672.158	-1585.3344	393.02353	1170.2059	-32.905041	395.60403	1172.3682	-116.868	396.3385	1208.4309	-69.40683	427.04425	1169.4442	-69.126266	346.55444	1174.636	-71.019501																																														-1069.1497	209.88904	-1624.6554	-1074.3694	248.53041	-1623.8829	-1321.4708	231.75305	1025.0712	-1320.0835	270.49319	1029.3459	848.21423	183.75246	1196.2389	851.88623	222.52191	1194.1304	1088.822	202.66621	-1428.2858	1082.6884	240.95285	-1432.4703	-1171.8362	1687.0396	-1581.6388	-1170.5452	1648.0624	-1581.2958	-1271.0792	1698.9402	1097.9666	-1271.7476	1659.962	1099.0857	952.9306	1705.6493	1186.8867	972.85834	1733.8041	1168.6879	1026.7074	1669.2632	-1551.4891	1028.262	1630.2965	-1551.9032	394.17688	1171.1724	-70.432755	391.91888	1132.2526	-71.504425
315	2.6166667	-1038.1973	214.47389	-1644.0531	-1109.3674	203.92336	-1599.4535	-1063.7249	172.97348	-1625.7615	-1054.1096	262.14679	-1634.9407	-1352.7137	235.23206	1003.7578	-1281.2616	227.46022	1052.3022	-1322.8593	193.91182	1020.9463	-1284.3951	287.90781	1052.8195	813.98157	187.50269	1209.4478	892.43549	178.59251	1179.0647	844.53137	145.45898	1198.3032	861.31525	292.47894	1168.3119	1115.9418	209.93398	-1401.7517	1056.3894	194.01994	-1460.0723	1095.2684	162.33975	-1423.8331	1069.8143	238.88556	-1425.8551	-1204.6768	1686.1039	-1562.9398	-1129.149	1688.2378	-1605.9496	-1173.0704	1724.3322	-1581.9615	-1133.7417	1581.0652	-1603.5928	-1239.588	1699.092	1119.4198	-1309.3934	1698.9211	1071.9821	-1270.444	1736.2728	1096.8867	-1245.6172	1592.8062	1110.6958	988.97266	1664.3159	1162.276	957.32477	1700.5876	1183.7523	922.11951	1662.2643	1214.8848	939.86218	1659.396	1159.9	999.30389	1668.4508	-1579.3073	1059.0831	1670.1992	-1518.6002	1025.1614	1708.0411	-1551.0729	1059.4456	1672.1929	-1585.4417	393.17157	1170.3077	-32.783043	395.5921	1172.3726	-116.88039	396.31946	1208.4365	-69.400482	427.04245	1169.4426	-69.1315	346.56506	1174.6385	-70.999519																																														-1068.6934	209.953	-1624.9421	-1073.8856	248.59637	-1624.0861	-1321.4755	231.83427	1024.981	-1320.0614	270.5899	1029.1041	848.06995	183.63118	1196.2461	851.66473	222.40889	1194.1565	1088.8463	202.69334	-1428.2866	1082.7528	240.98189	-1432.5125	-1171.8347	1687.0317	-1581.642	-1170.5433	1648.0546	-1581.3079	-1271.1086	1699.0148	1097.9993	-1271.8041	1660.0383	1099.163	952.85138	1705.7145	1186.7878	972.76685	1733.8719	1168.58	1026.7075	1669.2523	-1551.4781	1028.2607	1630.2854	-1551.8854	394.25348	1171.2307	-70.373444	392.09201	1132.304	-71.391418
